<svg xmlns="http://www.w3.org/2000/svg" xmlns:xlink="http://www.w3.org/1999/xlink" width="500" zoomAndPan="magnify" viewBox="0 0 375 374.999991" height="500" preserveAspectRatio="xMidYMid meet" version="1.0"><defs><g/><clipPath id="a3ed32da18"><path d="M 181 121.800781 L 188 121.800781 L 188 200.515625 L 181 200.515625 Z M 181 121.800781 " clip-rule="nonzero"/></clipPath><clipPath id="7115eb5df2"><path d="M 167 145 L 218.957031 145 L 218.957031 159 L 167 159 Z M 167 145 " clip-rule="nonzero"/></clipPath><clipPath id="a8e8084793"><path d="M 152.207031 161 L 204 161 L 204 175 L 152.207031 175 Z M 152.207031 161 " clip-rule="nonzero"/></clipPath></defs><g clip-path="url(#a3ed32da18)"><path fill="#FFFFFF" d="M 186.519531 200.515625 L 182.925781 200.515625 C 182.292969 200.515625 181.777344 200 181.777344 199.359375 L 181.777344 122.921875 C 181.777344 122.28125 182.292969 121.765625 182.925781 121.765625 L 186.519531 121.765625 C 187.152344 121.765625 187.667969 122.28125 187.667969 122.921875 L 187.667969 199.359375 C 187.667969 200 187.152344 200.515625 186.519531 200.515625 " fill-opacity="1" fill-rule="nonzero"/></g><path fill="#FFFFFF" d="M 209.867188 135.394531 L 204.5 140.949219 C 204.285156 141.175781 203.988281 141.300781 203.675781 141.300781 L 159.753906 141.300781 C 158.738281 141.300781 158.21875 140.074219 158.929688 139.339844 L 162.738281 135.394531 C 163.171875 134.949219 163.171875 134.234375 162.738281 133.785156 L 158.929688 129.84375 C 158.222656 129.113281 158.738281 127.886719 159.753906 127.886719 L 203.675781 127.886719 C 203.988281 127.886719 204.285156 128.011719 204.5 128.234375 L 209.867188 133.785156 C 210.296875 134.234375 210.296875 134.949219 209.867188 135.394531 " fill-opacity="1" fill-rule="nonzero"/><g clip-path="url(#FFFFFF)"><path fill="#FFFFFF" d="M 218.503906 152.960938 L 213.140625 158.515625 C 212.921875 158.738281 212.625 158.867188 212.316406 158.867188 L 168.390625 158.867188 C 167.375 158.867188 166.859375 157.640625 167.566406 156.90625 L 171.378906 152.960938 C 171.8125 152.511719 171.8125 151.800781 171.378906 151.351562 L 167.570312 147.410156 C 166.863281 146.679688 167.378906 145.449219 168.394531 145.449219 L 212.316406 145.449219 C 212.625 145.449219 212.921875 145.578125 213.140625 145.800781 L 218.503906 151.351562 C 218.9375 151.800781 218.9375 152.511719 218.503906 152.960938 " fill-opacity="1" fill-rule="nonzero"/></g><g clip-path="url(#FFFFFF)"><path fill="#FFFFFF" d="M 152.644531 168.652344 L 158.007812 174.207031 C 158.222656 174.429688 158.523438 174.554688 158.832031 174.554688 L 202.753906 174.554688 C 203.769531 174.554688 204.289062 173.328125 203.582031 172.597656 L 199.769531 168.652344 C 199.335938 168.203125 199.335938 167.492188 199.769531 167.042969 L 203.578125 163.101562 C 204.285156 162.367188 203.769531 161.140625 202.753906 161.140625 L 158.832031 161.140625 C 158.523438 161.140625 158.222656 161.265625 158.007812 161.492188 L 152.644531 167.042969 C 152.210938 167.492188 152.210938 168.203125 152.644531 168.652344 " fill-opacity="1" fill-rule="nonzero"/></g><g fill="#FFFFFF" fill-opacity="1"><g transform="translate(103.573986, 232.828065)"><g><path d="M 2.40625 -6.703125 C 2.363281 -6.859375 2.320312 -7.023438 2.28125 -7.203125 C 2.25 -7.378906 2.191406 -7.546875 2.109375 -7.703125 L 1.828125 -8.40625 C 1.347656 -9.539062 1.128906 -10.8125 1.171875 -12.21875 C 1.210938 -13.632812 1.332031 -15.007812 1.53125 -16.34375 C 1.570312 -16.5 1.59375 -16.632812 1.59375 -16.75 C 1.59375 -16.863281 1.609375 -16.976562 1.640625 -17.09375 C 1.679688 -17.21875 1.703125 -17.335938 1.703125 -17.453125 C 1.703125 -17.566406 1.722656 -17.703125 1.765625 -17.859375 L 1.9375 -19.21875 C 2.050781 -20.113281 2.320312 -21.003906 2.75 -21.890625 C 3.1875 -22.773438 3.835938 -23.550781 4.703125 -24.21875 C 5.566406 -24.84375 6.3125 -25.523438 6.9375 -26.265625 C 8.070312 -27.398438 9.34375 -27.96875 10.75 -27.96875 C 11.925781 -27.96875 13.023438 -27.710938 14.046875 -27.203125 C 15.066406 -26.691406 15.890625 -25.929688 16.515625 -24.921875 C 16.585938 -25.929688 16.613281 -26.835938 16.59375 -27.640625 C 16.582031 -28.453125 16.535156 -29.171875 16.453125 -29.796875 C 16.253906 -31.203125 16.195312 -32.414062 16.28125 -33.4375 C 16.320312 -33.90625 16.3125 -34.472656 16.25 -35.140625 C 16.1875 -35.804688 16.097656 -36.335938 15.984375 -36.734375 C 15.941406 -37.003906 15.785156 -37.140625 15.515625 -37.140625 L 14.34375 -37.140625 C 14.101562 -37.140625 13.945312 -37.117188 13.875 -37.078125 C 13.476562 -37.078125 13.125 -37.132812 12.8125 -37.25 C 12.5 -37.375 12.242188 -37.628906 12.046875 -38.015625 C 11.890625 -38.296875 11.8125 -38.671875 11.8125 -39.140625 C 11.8125 -39.410156 11.898438 -39.660156 12.078125 -39.890625 C 12.253906 -40.128906 12.457031 -40.328125 12.6875 -40.484375 L 13.40625 -40.90625 C 13.675781 -40.976562 13.832031 -41.035156 13.875 -41.078125 C 14.1875 -41.191406 14.566406 -41.269531 15.015625 -41.3125 C 15.460938 -41.351562 15.941406 -41.375 16.453125 -41.375 L 17.859375 -41.375 C 17.984375 -41.332031 18.203125 -41.3125 18.515625 -41.3125 L 19.390625 -41.3125 C 20.410156 -41.3125 21.210938 -41.113281 21.796875 -40.71875 C 22.390625 -40.332031 22.664062 -39.507812 22.625 -38.25 C 22.539062 -37.582031 22.476562 -36.75 22.4375 -35.75 C 22.40625 -34.757812 22.390625 -33.753906 22.390625 -32.734375 C 22.347656 -32.460938 22.328125 -32.195312 22.328125 -31.9375 C 22.328125 -31.6875 22.328125 -31.40625 22.328125 -31.09375 L 22.328125 -26.4375 C 22.328125 -26.28125 22.328125 -26.132812 22.328125 -26 C 22.328125 -25.863281 22.347656 -25.71875 22.390625 -25.5625 C 22.429688 -24.382812 22.429688 -23.191406 22.390625 -21.984375 C 22.304688 -21.035156 22.304688 -20.054688 22.390625 -19.046875 L 22.390625 -17.515625 C 22.390625 -17.234375 22.390625 -16.972656 22.390625 -16.734375 C 22.390625 -16.503906 22.410156 -16.253906 22.453125 -15.984375 L 22.453125 -13.046875 C 22.453125 -12.535156 22.441406 -12.0625 22.421875 -11.625 C 22.398438 -11.195312 22.367188 -10.789062 22.328125 -10.40625 C 22.285156 -10.050781 22.273438 -9.585938 22.296875 -9.015625 C 22.316406 -8.453125 22.347656 -7.875 22.390625 -7.28125 C 22.460938 -6.1875 22.597656 -5.382812 22.796875 -4.875 C 22.992188 -4.363281 23.660156 -3.972656 24.796875 -3.703125 C 25.148438 -3.617188 25.472656 -3.53125 25.765625 -3.4375 C 26.054688 -3.34375 26.265625 -3.21875 26.390625 -3.0625 C 26.660156 -2.550781 26.734375 -2.050781 26.609375 -1.5625 C 26.492188 -1.070312 26.203125 -0.726562 25.734375 -0.53125 C 25.191406 -0.257812 24.703125 -0.0664062 24.265625 0.046875 C 23.835938 0.171875 23.46875 0.253906 23.15625 0.296875 C 23.070312 0.335938 22.914062 0.359375 22.6875 0.359375 L 21.328125 0.359375 C 21.097656 0.359375 20.726562 0.238281 20.21875 0 C 19.707031 -0.238281 19.253906 -0.515625 18.859375 -0.828125 C 18.585938 -0.984375 18.351562 -1.316406 18.15625 -1.828125 C 18 -2.296875 17.804688 -2.53125 17.578125 -2.53125 C 17.253906 -2.53125 16.800781 -2.351562 16.21875 -2 L 14.75 -1.0625 C 13.769531 -0.351562 12.632812 0 11.34375 0 C 10.363281 0 9.476562 -0.125 8.6875 -0.375 C 7.90625 -0.632812 7.179688 -0.960938 6.515625 -1.359375 C 5.691406 -2.015625 4.859375 -2.800781 4.015625 -3.71875 C 3.179688 -4.644531 2.644531 -5.640625 2.40625 -6.703125 Z M 6.765625 -12.6875 C 6.765625 -11.90625 6.800781 -11.125 6.875 -10.34375 C 6.957031 -9.5625 7.269531 -8.796875 7.8125 -8.046875 L 7.9375 -7.875 C 7.96875 -7.832031 8.003906 -7.757812 8.046875 -7.65625 C 8.085938 -7.5625 8.128906 -7.476562 8.171875 -7.40625 C 8.210938 -7.363281 8.234375 -7.320312 8.234375 -7.28125 C 8.234375 -7.25 8.25 -7.210938 8.28125 -7.171875 C 8.5625 -6.421875 9.050781 -5.800781 9.75 -5.3125 C 10.457031 -4.820312 11.203125 -4.578125 11.984375 -4.578125 C 12.929688 -4.578125 13.796875 -4.898438 14.578125 -5.546875 C 15.359375 -6.191406 15.828125 -6.988281 15.984375 -7.9375 C 16.023438 -8.132812 16.082031 -8.347656 16.15625 -8.578125 C 16.238281 -8.816406 16.316406 -9.050781 16.390625 -9.28125 C 16.628906 -9.90625 16.691406 -10.691406 16.578125 -11.640625 C 16.535156 -12.023438 16.503906 -12.414062 16.484375 -12.8125 C 16.460938 -13.207031 16.472656 -13.597656 16.515625 -13.984375 C 16.628906 -15.160156 16.550781 -16.082031 16.28125 -16.75 C 16.125 -17.132812 16.015625 -17.523438 15.953125 -17.921875 C 15.890625 -18.316406 15.84375 -18.726562 15.8125 -19.15625 C 15.769531 -20.332031 15.285156 -21.320312 14.359375 -22.125 C 13.441406 -22.925781 12.414062 -23.328125 11.28125 -23.328125 C 10.539062 -23.328125 10.007812 -23.207031 9.6875 -22.96875 C 9.375 -22.738281 9.125 -22.410156 8.9375 -21.984375 C 8.65625 -21.472656 8.421875 -20.726562 8.234375 -19.75 C 8.148438 -19.238281 8.03125 -18.75 7.875 -18.28125 C 7.71875 -17.8125 7.503906 -17.359375 7.234375 -16.921875 C 7.035156 -16.609375 6.90625 -16.0625 6.84375 -15.28125 C 6.789062 -14.5 6.765625 -13.632812 6.765625 -12.6875 Z M 6.765625 -12.6875 "/></g></g></g><g fill="#FFFFFF" fill-opacity="1"><g transform="translate(131.430734, 232.828065)"><g><path d="M 7.46875 -14.921875 C 7.226562 -14.691406 7.128906 -14.359375 7.171875 -13.921875 C 7.210938 -13.804688 7.234375 -13.570312 7.234375 -13.21875 L 7.234375 -12.40625 C 7.191406 -11.382812 7.207031 -10.304688 7.28125 -9.171875 C 7.363281 -8.035156 7.5625 -7.070312 7.875 -6.28125 C 8.03125 -5.9375 8.265625 -5.5 8.578125 -4.96875 C 8.890625 -4.4375 9.242188 -3.894531 9.640625 -3.34375 C 9.992188 -2.800781 10.394531 -2.289062 10.84375 -1.8125 C 11.289062 -1.34375 11.890625 -1.109375 12.640625 -1.109375 C 13.304688 -1.109375 14.019531 -1.265625 14.78125 -1.578125 C 15.539062 -1.898438 16.0625 -2.394531 16.34375 -3.0625 C 16.613281 -3.757812 16.707031 -4.390625 16.625 -4.953125 C 16.550781 -5.523438 16.4375 -6.007812 16.28125 -6.40625 C 16.082031 -6.832031 15.828125 -7.066406 15.515625 -7.109375 C 15.160156 -7.109375 14.863281 -7.210938 14.625 -7.421875 C 14.394531 -7.640625 14.238281 -7.890625 14.15625 -8.171875 C 13.925781 -8.640625 13.957031 -9.085938 14.25 -9.515625 C 14.539062 -9.953125 14.921875 -10.304688 15.390625 -10.578125 C 15.671875 -10.734375 16.003906 -10.8125 16.390625 -10.8125 C 17.179688 -10.8125 17.9375 -10.585938 18.65625 -10.140625 C 19.382812 -9.691406 19.882812 -9.113281 20.15625 -8.40625 C 20.238281 -8.007812 20.414062 -7.617188 20.6875 -7.234375 C 20.757812 -7.035156 20.828125 -6.828125 20.890625 -6.609375 C 20.953125 -6.390625 20.960938 -6.144531 20.921875 -5.875 C 20.804688 -5.363281 20.75 -4.796875 20.75 -4.171875 C 20.75 -3.234375 20.640625 -2.3125 20.421875 -1.40625 C 20.203125 -0.507812 19.664062 0.210938 18.8125 0.765625 C 18.769531 0.804688 18.695312 0.84375 18.59375 0.875 C 18.5 0.914062 18.394531 0.976562 18.28125 1.0625 L 17.6875 1.40625 C 17.644531 1.445312 17.570312 1.488281 17.46875 1.53125 C 17.375 1.570312 17.269531 1.628906 17.15625 1.703125 C 17.039062 1.816406 16.882812 1.914062 16.6875 2 C 16.019531 2.425781 15.265625 2.71875 14.421875 2.875 C 13.578125 3.03125 12.765625 3.109375 11.984375 3.109375 C 10.648438 3.109375 9.53125 2.976562 8.625 2.71875 C 7.726562 2.46875 6.8125 1.796875 5.875 0.703125 C 5.25 0.0351562 4.660156 -0.675781 4.109375 -1.4375 C 3.566406 -2.195312 3.234375 -3.007812 3.109375 -3.875 C 2.992188 -4.695312 2.867188 -5.382812 2.734375 -5.9375 C 2.597656 -6.488281 2.429688 -7.113281 2.234375 -7.8125 C 1.992188 -8.519531 1.851562 -9.332031 1.8125 -10.25 C 1.78125 -11.175781 1.820312 -12.1875 1.9375 -13.28125 C 1.976562 -13.550781 2 -13.832031 2 -14.125 C 2 -14.425781 2.019531 -14.710938 2.0625 -14.984375 L 2.234375 -16.625 C 2.273438 -17.175781 2.300781 -17.753906 2.3125 -18.359375 C 2.332031 -18.972656 2.328125 -19.613281 2.296875 -20.28125 C 2.253906 -21.570312 2.390625 -22.765625 2.703125 -23.859375 C 3.015625 -24.953125 3.425781 -26.007812 3.9375 -27.03125 C 4.363281 -27.851562 4.910156 -28.6875 5.578125 -29.53125 C 6.242188 -30.375 6.953125 -31.066406 7.703125 -31.609375 L 9.703125 -32.84375 C 10.171875 -33.125 10.765625 -33.332031 11.484375 -33.46875 C 12.210938 -33.601562 12.851562 -33.671875 13.40625 -33.671875 C 14.414062 -33.671875 15.410156 -33.40625 16.390625 -32.875 C 17.367188 -32.351562 18.210938 -31.671875 18.921875 -30.828125 C 19.628906 -29.984375 20.039062 -29.050781 20.15625 -28.03125 C 20.269531 -26.894531 20.46875 -26.015625 20.75 -25.390625 C 21.0625 -24.210938 21.253906 -23.179688 21.328125 -22.296875 C 21.410156 -21.421875 21.453125 -20.648438 21.453125 -19.984375 C 21.367188 -18.609375 20.972656 -17.597656 20.265625 -16.953125 C 19.566406 -16.304688 18.472656 -15.941406 16.984375 -15.859375 L 16.34375 -15.859375 C 16.0625 -15.859375 15.785156 -15.859375 15.515625 -15.859375 C 15.242188 -15.859375 14.945312 -15.84375 14.625 -15.8125 C 13.769531 -15.6875 12.910156 -15.625 12.046875 -15.625 C 11.929688 -15.664062 11.8125 -15.6875 11.6875 -15.6875 C 11.570312 -15.6875 11.457031 -15.6875 11.34375 -15.6875 L 9.40625 -15.6875 C 8.582031 -15.6875 7.9375 -15.429688 7.46875 -14.921875 Z M 7.8125 -21.15625 C 7.8125 -20.726562 7.910156 -20.425781 8.109375 -20.25 C 8.304688 -20.070312 8.5625 -19.941406 8.875 -19.859375 C 9.03125 -19.816406 9.175781 -19.796875 9.3125 -19.796875 C 9.445312 -19.796875 9.59375 -19.796875 9.75 -19.796875 L 10.640625 -19.796875 C 10.835938 -19.796875 11.03125 -19.785156 11.21875 -19.765625 C 11.414062 -19.753906 11.632812 -19.75 11.875 -19.75 C 12.300781 -19.75 12.757812 -19.765625 13.25 -19.796875 C 13.738281 -19.835938 14.21875 -19.898438 14.6875 -19.984375 C 15.351562 -20.054688 15.84375 -20.207031 16.15625 -20.4375 C 16.46875 -20.675781 16.585938 -21.128906 16.515625 -21.796875 L 16.21875 -24.328125 C 16.175781 -24.835938 16.035156 -25.441406 15.796875 -26.140625 C 15.566406 -26.847656 15.234375 -27.484375 14.796875 -28.046875 C 14.367188 -28.617188 13.84375 -28.90625 13.21875 -28.90625 C 13.0625 -28.90625 12.882812 -28.882812 12.6875 -28.84375 C 12.5 -28.8125 12.304688 -28.753906 12.109375 -28.671875 L 11.28125 -28.328125 C 10.96875 -28.210938 10.671875 -28.035156 10.390625 -27.796875 C 10.117188 -27.554688 9.925781 -27.222656 9.8125 -26.796875 C 9.695312 -26.367188 9.421875 -25.9375 8.984375 -25.5 C 8.515625 -24.988281 8.210938 -24.320312 8.078125 -23.5 C 7.941406 -22.675781 7.851562 -21.894531 7.8125 -21.15625 Z M 7.8125 -21.15625 "/></g></g></g><g fill="#FFFFFF" fill-opacity="1"><g transform="translate(154.644695, 232.828065)"><g><path d="M 3.9375 -27.265625 C 4.132812 -27.617188 4.40625 -28.0625 4.75 -28.59375 C 5.101562 -29.125 5.476562 -29.648438 5.875 -30.171875 C 6.269531 -30.703125 6.601562 -31.085938 6.875 -31.328125 C 7.695312 -32.066406 8.753906 -32.640625 10.046875 -33.046875 C 11.335938 -33.460938 12.535156 -33.671875 13.640625 -33.671875 C 15.046875 -33.671875 16.484375 -33.25 17.953125 -32.40625 C 19.421875 -31.5625 20.429688 -30.472656 20.984375 -29.140625 L 21.515625 -27.859375 C 21.742188 -27.304688 21.867188 -26.597656 21.890625 -25.734375 C 21.910156 -24.878906 21.703125 -24.117188 21.265625 -23.453125 C 20.953125 -22.898438 20.503906 -22.414062 19.921875 -22 C 19.335938 -21.59375 18.769531 -21.289062 18.21875 -21.09375 C 17.75 -20.863281 17.238281 -20.671875 16.6875 -20.515625 C 16.132812 -20.359375 15.585938 -20.28125 15.046875 -20.28125 C 14.609375 -20.28125 14.203125 -20.363281 13.828125 -20.53125 C 13.460938 -20.707031 13.179688 -21.015625 12.984375 -21.453125 C 12.828125 -21.765625 12.707031 -22.085938 12.625 -22.421875 C 12.550781 -22.753906 12.554688 -23.054688 12.640625 -23.328125 C 12.710938 -23.753906 13.015625 -24.015625 13.546875 -24.109375 C 14.078125 -24.210938 14.5 -24.285156 14.8125 -24.328125 C 15.351562 -24.367188 15.75 -24.515625 16 -24.765625 C 16.257812 -25.023438 16.429688 -25.332031 16.515625 -25.6875 C 16.585938 -26.03125 16.566406 -26.390625 16.453125 -26.765625 C 16.335938 -27.140625 16.203125 -27.484375 16.046875 -27.796875 C 15.804688 -28.222656 15.46875 -28.550781 15.03125 -28.78125 C 14.601562 -29.019531 14 -29.140625 13.21875 -29.140625 C 13.101562 -29.140625 12.976562 -29.128906 12.84375 -29.109375 C 12.707031 -29.097656 12.578125 -29.09375 12.453125 -29.09375 C 12.023438 -29.007812 11.4375 -28.722656 10.6875 -28.234375 C 9.945312 -27.742188 9.421875 -27.128906 9.109375 -26.390625 C 9.066406 -26.347656 9.007812 -26.070312 8.9375 -25.5625 C 8.894531 -25.445312 8.875 -25.3125 8.875 -25.15625 C 8.875 -25 8.851562 -24.878906 8.8125 -24.796875 C 8.769531 -24.679688 8.75 -24.546875 8.75 -24.390625 C 8.75 -24.191406 8.734375 -24.035156 8.703125 -23.921875 C 8.660156 -23.722656 8.628906 -23.554688 8.609375 -23.421875 C 8.585938 -23.285156 8.578125 -23.175781 8.578125 -23.09375 C 8.535156 -22.976562 8.515625 -22.84375 8.515625 -22.6875 C 8.515625 -22.53125 8.5 -22.410156 8.46875 -22.328125 L 8.34375 -21.5625 L 8.171875 -19.5625 L 7.984375 -18.515625 C 7.910156 -18.003906 7.84375 -17.484375 7.78125 -16.953125 C 7.726562 -16.421875 7.703125 -15.882812 7.703125 -15.34375 C 7.703125 -14.863281 7.796875 -14.195312 7.984375 -13.34375 C 8.222656 -12.71875 8.34375 -12.03125 8.34375 -11.28125 C 8.34375 -10.539062 8.46875 -9.851562 8.71875 -9.21875 C 8.976562 -8.59375 9.304688 -8.023438 9.703125 -7.515625 L 10.640625 -6.171875 C 10.953125 -5.660156 11.285156 -5.265625 11.640625 -4.984375 C 11.992188 -4.710938 12.484375 -4.578125 13.109375 -4.578125 C 14.203125 -4.578125 15.050781 -4.859375 15.65625 -5.421875 C 16.269531 -5.992188 16.710938 -6.726562 16.984375 -7.625 C 17.253906 -8.53125 17.429688 -9.4375 17.515625 -10.34375 C 17.628906 -11.394531 18.21875 -11.921875 19.28125 -11.921875 C 19.4375 -11.921875 19.601562 -11.910156 19.78125 -11.890625 C 19.957031 -11.878906 20.125 -11.851562 20.28125 -11.8125 C 20.625 -11.726562 20.984375 -11.617188 21.359375 -11.484375 C 21.734375 -11.347656 22.035156 -11.164062 22.265625 -10.9375 C 22.503906 -10.65625 22.648438 -10.316406 22.703125 -9.921875 C 22.765625 -9.535156 22.679688 -9.03125 22.453125 -8.40625 C 22.296875 -8.050781 22.019531 -7.53125 21.625 -6.84375 C 21.226562 -6.15625 20.785156 -5.421875 20.296875 -4.640625 C 19.804688 -3.859375 19.335938 -3.160156 18.890625 -2.546875 C 18.441406 -1.941406 18.0625 -1.546875 17.75 -1.359375 C 16.300781 -0.453125 14.632812 0 12.75 0 C 11.925781 0 11.101562 -0.0859375 10.28125 -0.265625 C 9.457031 -0.441406 8.675781 -0.742188 7.9375 -1.171875 C 7.269531 -1.609375 6.570312 -2.296875 5.84375 -3.234375 C 5.125 -4.171875 4.507812 -5.175781 4 -6.25 C 3.488281 -7.332031 3.15625 -8.285156 3 -9.109375 C 2.957031 -9.222656 2.9375 -9.335938 2.9375 -9.453125 C 2.9375 -9.578125 2.914062 -9.71875 2.875 -9.875 L 2.34375 -12.21875 C 2.15625 -13.125 2 -14.09375 1.875 -15.125 C 1.757812 -16.164062 1.757812 -17.253906 1.875 -18.390625 L 2.0625 -19.859375 C 2.09375 -19.984375 2.109375 -20.203125 2.109375 -20.515625 C 2.109375 -20.828125 2.128906 -21.039062 2.171875 -21.15625 C 2.253906 -21.976562 2.363281 -22.738281 2.5 -23.4375 C 2.632812 -24.144531 2.820312 -24.816406 3.0625 -25.453125 C 3.21875 -26.078125 3.507812 -26.679688 3.9375 -27.265625 Z M 3.9375 -27.265625 "/></g></g></g><g fill="#FFFFFF" fill-opacity="1"><g transform="translate(178.563887, 232.828065)"><g><path d="M 4.9375 -0.0625 C 4.738281 -0.0625 4.519531 -0.0507812 4.28125 -0.03125 C 4.050781 -0.0078125 3.835938 0 3.640625 0 L 3.34375 0 C 2.800781 0 2.375 -0.078125 2.0625 -0.234375 C 1.625 -0.429688 1.335938 -0.765625 1.203125 -1.234375 C 1.066406 -1.703125 1.210938 -2.234375 1.640625 -2.828125 C 1.796875 -3.054688 2.070312 -3.191406 2.46875 -3.234375 C 2.820312 -3.234375 3.222656 -3.398438 3.671875 -3.734375 C 4.117188 -4.066406 4.421875 -4.601562 4.578125 -5.34375 C 4.660156 -5.96875 4.710938 -6.503906 4.734375 -6.953125 C 4.753906 -7.410156 4.765625 -7.851562 4.765625 -8.28125 L 4.765625 -9.640625 C 4.765625 -9.867188 4.769531 -10.128906 4.78125 -10.421875 C 4.800781 -10.722656 4.832031 -11.03125 4.875 -11.34375 C 4.914062 -12.394531 4.875 -13.65625 4.75 -15.125 C 4.632812 -16.59375 4.5 -18.070312 4.34375 -19.5625 C 4.269531 -20.582031 4.066406 -21.285156 3.734375 -21.671875 C 3.398438 -22.066406 3.054688 -22.363281 2.703125 -22.5625 C 2.304688 -22.757812 1.953125 -22.945312 1.640625 -23.125 C 1.328125 -23.300781 1.171875 -23.679688 1.171875 -24.265625 C 1.171875 -24.816406 1.359375 -25.269531 1.734375 -25.625 C 2.109375 -25.976562 2.390625 -26.191406 2.578125 -26.265625 C 3.085938 -26.535156 3.773438 -26.671875 4.640625 -26.671875 L 6.34375 -26.671875 C 6.539062 -26.671875 6.695312 -26.691406 6.8125 -26.734375 C 7.363281 -26.734375 7.894531 -26.703125 8.40625 -26.640625 C 8.914062 -26.585938 9.363281 -26.460938 9.75 -26.265625 C 10.101562 -26.035156 10.378906 -25.710938 10.578125 -25.296875 C 10.773438 -24.890625 10.875 -24.332031 10.875 -23.625 C 10.832031 -23.507812 10.8125 -23.234375 10.8125 -22.796875 L 10.8125 -19.328125 C 10.8125 -19.171875 10.8125 -19.015625 10.8125 -18.859375 C 10.8125 -18.703125 10.789062 -18.546875 10.75 -18.390625 L 10.75 -17.21875 C 10.71875 -17.132812 10.703125 -16.9375 10.703125 -16.625 L 10.703125 -13.6875 C 10.703125 -13.300781 10.71875 -13.066406 10.75 -12.984375 C 10.789062 -12.628906 10.820312 -12.316406 10.84375 -12.046875 C 10.863281 -11.773438 10.875 -11.5 10.875 -11.21875 L 10.875 -10.75 C 10.875 -10.4375 10.851562 -10.222656 10.8125 -10.109375 C 10.769531 -10.023438 10.75 -9.828125 10.75 -9.515625 L 10.75 -8.875 C 10.75 -8.363281 10.769531 -7.851562 10.8125 -7.34375 C 10.851562 -6.832031 10.929688 -6.363281 11.046875 -5.9375 C 11.128906 -5.5 11.238281 -5.171875 11.375 -4.953125 C 11.507812 -4.742188 11.753906 -4.582031 12.109375 -4.46875 C 12.460938 -4.269531 12.832031 -4.148438 13.21875 -4.109375 L 13.75 -3.9375 C 13.90625 -3.894531 14.109375 -3.820312 14.359375 -3.71875 C 14.617188 -3.625 14.769531 -3.519531 14.8125 -3.40625 C 15.082031 -2.9375 15.164062 -2.457031 15.0625 -1.96875 C 14.96875 -1.476562 14.6875 -1.132812 14.21875 -0.9375 C 13.632812 -0.664062 12.867188 -0.46875 11.921875 -0.34375 C 10.984375 -0.226562 10.046875 -0.15625 9.109375 -0.125 C 8.992188 -0.0820312 8.875 -0.0625 8.75 -0.0625 C 8.632812 -0.0625 8.519531 -0.0625 8.40625 -0.0625 Z M 4.9375 -0.0625 "/></g></g></g><g fill="#FFFFFF" fill-opacity="1"><g transform="translate(194.901815, 232.828065)"><g><path d="M 2.40625 -6.703125 C 2.363281 -6.859375 2.320312 -7.023438 2.28125 -7.203125 C 2.25 -7.378906 2.191406 -7.546875 2.109375 -7.703125 L 1.828125 -8.40625 C 1.347656 -9.539062 1.128906 -10.8125 1.171875 -12.21875 C 1.210938 -13.632812 1.332031 -15.007812 1.53125 -16.34375 C 1.570312 -16.5 1.59375 -16.632812 1.59375 -16.75 C 1.59375 -16.863281 1.609375 -16.976562 1.640625 -17.09375 C 1.679688 -17.21875 1.703125 -17.335938 1.703125 -17.453125 C 1.703125 -17.566406 1.722656 -17.703125 1.765625 -17.859375 L 1.9375 -19.21875 C 2.050781 -20.113281 2.320312 -21.003906 2.75 -21.890625 C 3.1875 -22.773438 3.835938 -23.550781 4.703125 -24.21875 C 5.566406 -24.84375 6.3125 -25.523438 6.9375 -26.265625 C 8.070312 -27.398438 9.34375 -27.96875 10.75 -27.96875 C 11.925781 -27.96875 13.023438 -27.710938 14.046875 -27.203125 C 15.066406 -26.691406 15.890625 -25.929688 16.515625 -24.921875 C 16.585938 -25.929688 16.613281 -26.835938 16.59375 -27.640625 C 16.582031 -28.453125 16.535156 -29.171875 16.453125 -29.796875 C 16.253906 -31.203125 16.195312 -32.414062 16.28125 -33.4375 C 16.320312 -33.90625 16.3125 -34.472656 16.25 -35.140625 C 16.1875 -35.804688 16.097656 -36.335938 15.984375 -36.734375 C 15.941406 -37.003906 15.785156 -37.140625 15.515625 -37.140625 L 14.34375 -37.140625 C 14.101562 -37.140625 13.945312 -37.117188 13.875 -37.078125 C 13.476562 -37.078125 13.125 -37.132812 12.8125 -37.25 C 12.5 -37.375 12.242188 -37.628906 12.046875 -38.015625 C 11.890625 -38.296875 11.8125 -38.671875 11.8125 -39.140625 C 11.8125 -39.410156 11.898438 -39.660156 12.078125 -39.890625 C 12.253906 -40.128906 12.457031 -40.328125 12.6875 -40.484375 L 13.40625 -40.90625 C 13.675781 -40.976562 13.832031 -41.035156 13.875 -41.078125 C 14.1875 -41.191406 14.566406 -41.269531 15.015625 -41.3125 C 15.460938 -41.351562 15.941406 -41.375 16.453125 -41.375 L 17.859375 -41.375 C 17.984375 -41.332031 18.203125 -41.3125 18.515625 -41.3125 L 19.390625 -41.3125 C 20.410156 -41.3125 21.210938 -41.113281 21.796875 -40.71875 C 22.390625 -40.332031 22.664062 -39.507812 22.625 -38.25 C 22.539062 -37.582031 22.476562 -36.75 22.4375 -35.75 C 22.40625 -34.757812 22.390625 -33.753906 22.390625 -32.734375 C 22.347656 -32.460938 22.328125 -32.195312 22.328125 -31.9375 C 22.328125 -31.6875 22.328125 -31.40625 22.328125 -31.09375 L 22.328125 -26.4375 C 22.328125 -26.28125 22.328125 -26.132812 22.328125 -26 C 22.328125 -25.863281 22.347656 -25.71875 22.390625 -25.5625 C 22.429688 -24.382812 22.429688 -23.191406 22.390625 -21.984375 C 22.304688 -21.035156 22.304688 -20.054688 22.390625 -19.046875 L 22.390625 -17.515625 C 22.390625 -17.234375 22.390625 -16.972656 22.390625 -16.734375 C 22.390625 -16.503906 22.410156 -16.253906 22.453125 -15.984375 L 22.453125 -13.046875 C 22.453125 -12.535156 22.441406 -12.0625 22.421875 -11.625 C 22.398438 -11.195312 22.367188 -10.789062 22.328125 -10.40625 C 22.285156 -10.050781 22.273438 -9.585938 22.296875 -9.015625 C 22.316406 -8.453125 22.347656 -7.875 22.390625 -7.28125 C 22.460938 -6.1875 22.597656 -5.382812 22.796875 -4.875 C 22.992188 -4.363281 23.660156 -3.972656 24.796875 -3.703125 C 25.148438 -3.617188 25.472656 -3.53125 25.765625 -3.4375 C 26.054688 -3.34375 26.265625 -3.21875 26.390625 -3.0625 C 26.660156 -2.550781 26.734375 -2.050781 26.609375 -1.5625 C 26.492188 -1.070312 26.203125 -0.726562 25.734375 -0.53125 C 25.191406 -0.257812 24.703125 -0.0664062 24.265625 0.046875 C 23.835938 0.171875 23.46875 0.253906 23.15625 0.296875 C 23.070312 0.335938 22.914062 0.359375 22.6875 0.359375 L 21.328125 0.359375 C 21.097656 0.359375 20.726562 0.238281 20.21875 0 C 19.707031 -0.238281 19.253906 -0.515625 18.859375 -0.828125 C 18.585938 -0.984375 18.351562 -1.316406 18.15625 -1.828125 C 18 -2.296875 17.804688 -2.53125 17.578125 -2.53125 C 17.253906 -2.53125 16.800781 -2.351562 16.21875 -2 L 14.75 -1.0625 C 13.769531 -0.351562 12.632812 0 11.34375 0 C 10.363281 0 9.476562 -0.125 8.6875 -0.375 C 7.90625 -0.632812 7.179688 -0.960938 6.515625 -1.359375 C 5.691406 -2.015625 4.859375 -2.800781 4.015625 -3.71875 C 3.179688 -4.644531 2.644531 -5.640625 2.40625 -6.703125 Z M 6.765625 -12.6875 C 6.765625 -11.90625 6.800781 -11.125 6.875 -10.34375 C 6.957031 -9.5625 7.269531 -8.796875 7.8125 -8.046875 L 7.9375 -7.875 C 7.96875 -7.832031 8.003906 -7.757812 8.046875 -7.65625 C 8.085938 -7.5625 8.128906 -7.476562 8.171875 -7.40625 C 8.210938 -7.363281 8.234375 -7.320312 8.234375 -7.28125 C 8.234375 -7.25 8.25 -7.210938 8.28125 -7.171875 C 8.5625 -6.421875 9.050781 -5.800781 9.75 -5.3125 C 10.457031 -4.820312 11.203125 -4.578125 11.984375 -4.578125 C 12.929688 -4.578125 13.796875 -4.898438 14.578125 -5.546875 C 15.359375 -6.191406 15.828125 -6.988281 15.984375 -7.9375 C 16.023438 -8.132812 16.082031 -8.347656 16.15625 -8.578125 C 16.238281 -8.816406 16.316406 -9.050781 16.390625 -9.28125 C 16.628906 -9.90625 16.691406 -10.691406 16.578125 -11.640625 C 16.535156 -12.023438 16.503906 -12.414062 16.484375 -12.8125 C 16.460938 -13.207031 16.472656 -13.597656 16.515625 -13.984375 C 16.628906 -15.160156 16.550781 -16.082031 16.28125 -16.75 C 16.125 -17.132812 16.015625 -17.523438 15.953125 -17.921875 C 15.890625 -18.316406 15.84375 -18.726562 15.8125 -19.15625 C 15.769531 -20.332031 15.285156 -21.320312 14.359375 -22.125 C 13.441406 -22.925781 12.414062 -23.328125 11.28125 -23.328125 C 10.539062 -23.328125 10.007812 -23.207031 9.6875 -22.96875 C 9.375 -22.738281 9.125 -22.410156 8.9375 -21.984375 C 8.65625 -21.472656 8.421875 -20.726562 8.234375 -19.75 C 8.148438 -19.238281 8.03125 -18.75 7.875 -18.28125 C 7.71875 -17.8125 7.503906 -17.359375 7.234375 -16.921875 C 7.035156 -16.609375 6.90625 -16.0625 6.84375 -15.28125 C 6.789062 -14.5 6.765625 -13.632812 6.765625 -12.6875 Z M 6.765625 -12.6875 "/></g></g></g><g fill="#FFFFFF" fill-opacity="1"><g transform="translate(222.758564, 232.828065)"><g><path d="M 7.46875 -14.921875 C 7.226562 -14.691406 7.128906 -14.359375 7.171875 -13.921875 C 7.210938 -13.804688 7.234375 -13.570312 7.234375 -13.21875 L 7.234375 -12.40625 C 7.191406 -11.382812 7.207031 -10.304688 7.28125 -9.171875 C 7.363281 -8.035156 7.5625 -7.070312 7.875 -6.28125 C 8.03125 -5.9375 8.265625 -5.5 8.578125 -4.96875 C 8.890625 -4.4375 9.242188 -3.894531 9.640625 -3.34375 C 9.992188 -2.800781 10.394531 -2.289062 10.84375 -1.8125 C 11.289062 -1.34375 11.890625 -1.109375 12.640625 -1.109375 C 13.304688 -1.109375 14.019531 -1.265625 14.78125 -1.578125 C 15.539062 -1.898438 16.0625 -2.394531 16.34375 -3.0625 C 16.613281 -3.757812 16.707031 -4.390625 16.625 -4.953125 C 16.550781 -5.523438 16.4375 -6.007812 16.28125 -6.40625 C 16.082031 -6.832031 15.828125 -7.066406 15.515625 -7.109375 C 15.160156 -7.109375 14.863281 -7.210938 14.625 -7.421875 C 14.394531 -7.640625 14.238281 -7.890625 14.15625 -8.171875 C 13.925781 -8.640625 13.957031 -9.085938 14.25 -9.515625 C 14.539062 -9.953125 14.921875 -10.304688 15.390625 -10.578125 C 15.671875 -10.734375 16.003906 -10.8125 16.390625 -10.8125 C 17.179688 -10.8125 17.9375 -10.585938 18.65625 -10.140625 C 19.382812 -9.691406 19.882812 -9.113281 20.15625 -8.40625 C 20.238281 -8.007812 20.414062 -7.617188 20.6875 -7.234375 C 20.757812 -7.035156 20.828125 -6.828125 20.890625 -6.609375 C 20.953125 -6.390625 20.960938 -6.144531 20.921875 -5.875 C 20.804688 -5.363281 20.75 -4.796875 20.75 -4.171875 C 20.75 -3.234375 20.640625 -2.3125 20.421875 -1.40625 C 20.203125 -0.507812 19.664062 0.210938 18.8125 0.765625 C 18.769531 0.804688 18.695312 0.84375 18.59375 0.875 C 18.5 0.914062 18.394531 0.976562 18.28125 1.0625 L 17.6875 1.40625 C 17.644531 1.445312 17.570312 1.488281 17.46875 1.53125 C 17.375 1.570312 17.269531 1.628906 17.15625 1.703125 C 17.039062 1.816406 16.882812 1.914062 16.6875 2 C 16.019531 2.425781 15.265625 2.71875 14.421875 2.875 C 13.578125 3.03125 12.765625 3.109375 11.984375 3.109375 C 10.648438 3.109375 9.53125 2.976562 8.625 2.71875 C 7.726562 2.46875 6.8125 1.796875 5.875 0.703125 C 5.25 0.0351562 4.660156 -0.675781 4.109375 -1.4375 C 3.566406 -2.195312 3.234375 -3.007812 3.109375 -3.875 C 2.992188 -4.695312 2.867188 -5.382812 2.734375 -5.9375 C 2.597656 -6.488281 2.429688 -7.113281 2.234375 -7.8125 C 1.992188 -8.519531 1.851562 -9.332031 1.8125 -10.25 C 1.78125 -11.175781 1.820312 -12.1875 1.9375 -13.28125 C 1.976562 -13.550781 2 -13.832031 2 -14.125 C 2 -14.425781 2.019531 -14.710938 2.0625 -14.984375 L 2.234375 -16.625 C 2.273438 -17.175781 2.300781 -17.753906 2.3125 -18.359375 C 2.332031 -18.972656 2.328125 -19.613281 2.296875 -20.28125 C 2.253906 -21.570312 2.390625 -22.765625 2.703125 -23.859375 C 3.015625 -24.953125 3.425781 -26.007812 3.9375 -27.03125 C 4.363281 -27.851562 4.910156 -28.6875 5.578125 -29.53125 C 6.242188 -30.375 6.953125 -31.066406 7.703125 -31.609375 L 9.703125 -32.84375 C 10.171875 -33.125 10.765625 -33.332031 11.484375 -33.46875 C 12.210938 -33.601562 12.851562 -33.671875 13.40625 -33.671875 C 14.414062 -33.671875 15.410156 -33.40625 16.390625 -32.875 C 17.367188 -32.351562 18.210938 -31.671875 18.921875 -30.828125 C 19.628906 -29.984375 20.039062 -29.050781 20.15625 -28.03125 C 20.269531 -26.894531 20.46875 -26.015625 20.75 -25.390625 C 21.0625 -24.210938 21.253906 -23.179688 21.328125 -22.296875 C 21.410156 -21.421875 21.453125 -20.648438 21.453125 -19.984375 C 21.367188 -18.609375 20.972656 -17.597656 20.265625 -16.953125 C 19.566406 -16.304688 18.472656 -15.941406 16.984375 -15.859375 L 16.34375 -15.859375 C 16.0625 -15.859375 15.785156 -15.859375 15.515625 -15.859375 C 15.242188 -15.859375 14.945312 -15.84375 14.625 -15.8125 C 13.769531 -15.6875 12.910156 -15.625 12.046875 -15.625 C 11.929688 -15.664062 11.8125 -15.6875 11.6875 -15.6875 C 11.570312 -15.6875 11.457031 -15.6875 11.34375 -15.6875 L 9.40625 -15.6875 C 8.582031 -15.6875 7.9375 -15.429688 7.46875 -14.921875 Z M 7.8125 -21.15625 C 7.8125 -20.726562 7.910156 -20.425781 8.109375 -20.25 C 8.304688 -20.070312 8.5625 -19.941406 8.875 -19.859375 C 9.03125 -19.816406 9.175781 -19.796875 9.3125 -19.796875 C 9.445312 -19.796875 9.59375 -19.796875 9.75 -19.796875 L 10.640625 -19.796875 C 10.835938 -19.796875 11.03125 -19.785156 11.21875 -19.765625 C 11.414062 -19.753906 11.632812 -19.75 11.875 -19.75 C 12.300781 -19.75 12.757812 -19.765625 13.25 -19.796875 C 13.738281 -19.835938 14.21875 -19.898438 14.6875 -19.984375 C 15.351562 -20.054688 15.84375 -20.207031 16.15625 -20.4375 C 16.46875 -20.675781 16.585938 -21.128906 16.515625 -21.796875 L 16.21875 -24.328125 C 16.175781 -24.835938 16.035156 -25.441406 15.796875 -26.140625 C 15.566406 -26.847656 15.234375 -27.484375 14.796875 -28.046875 C 14.367188 -28.617188 13.84375 -28.90625 13.21875 -28.90625 C 13.0625 -28.90625 12.882812 -28.882812 12.6875 -28.84375 C 12.5 -28.8125 12.304688 -28.753906 12.109375 -28.671875 L 11.28125 -28.328125 C 10.96875 -28.210938 10.671875 -28.035156 10.390625 -27.796875 C 10.117188 -27.554688 9.925781 -27.222656 9.8125 -26.796875 C 9.695312 -26.367188 9.421875 -25.9375 8.984375 -25.5 C 8.515625 -24.988281 8.210938 -24.320312 8.078125 -23.5 C 7.941406 -22.675781 7.851562 -21.894531 7.8125 -21.15625 Z M 7.8125 -21.15625 "/></g></g></g><g fill="#FFFFFF" fill-opacity="1"><g transform="translate(245.972525, 232.828065)"><g><path d="M 4.34375 -20.859375 C 4.269531 -23.171875 4.113281 -24.914062 3.875 -26.09375 C 3.757812 -26.757812 3.582031 -27.113281 3.34375 -27.15625 C 3.113281 -27.1875 2.859375 -27.238281 2.578125 -27.3125 C 2.304688 -27.394531 2.054688 -27.613281 1.828125 -27.96875 C 1.585938 -28.28125 1.46875 -28.753906 1.46875 -29.390625 C 1.46875 -29.617188 1.503906 -29.835938 1.578125 -30.046875 C 1.660156 -30.265625 1.800781 -30.414062 2 -30.5 C 2.3125 -30.695312 2.585938 -30.816406 2.828125 -30.859375 C 3.140625 -31.046875 3.453125 -31.148438 3.765625 -31.171875 C 4.078125 -31.191406 4.410156 -31.203125 4.765625 -31.203125 C 5.109375 -31.160156 5.457031 -31.128906 5.8125 -31.109375 C 6.164062 -31.097656 6.5 -31.09375 6.8125 -31.09375 L 8.40625 -31.09375 C 9.425781 -31.09375 10.09375 -30.816406 10.40625 -30.265625 C 10.71875 -29.710938 10.875 -29.101562 10.875 -28.4375 C 10.832031 -28.125 10.820312 -27.867188 10.84375 -27.671875 C 10.863281 -27.484375 10.894531 -27.3125 10.9375 -27.15625 C 10.9375 -26.957031 10.992188 -26.859375 11.109375 -26.859375 C 11.179688 -26.859375 11.316406 -26.992188 11.515625 -27.265625 L 12.515625 -28.265625 C 12.710938 -28.617188 13.335938 -29.070312 14.390625 -29.625 C 15.054688 -29.8125 15.429688 -29.90625 15.515625 -29.90625 C 15.742188 -29.945312 15.976562 -29.96875 16.21875 -29.96875 C 16.457031 -29.96875 16.671875 -29.96875 16.859375 -29.96875 C 18.941406 -29.96875 20.507812 -29.46875 21.5625 -28.46875 C 22.625 -27.46875 23.566406 -26.085938 24.390625 -24.328125 C 24.703125 -23.503906 24.859375 -22.816406 24.859375 -22.265625 C 24.859375 -20.703125 24.640625 -19.164062 24.203125 -17.65625 C 23.773438 -16.144531 23.03125 -14.890625 21.96875 -13.890625 C 20.914062 -12.898438 19.429688 -12.40625 17.515625 -12.40625 C 17.117188 -12.476562 16.882812 -12.535156 16.8125 -12.578125 C 16.53125 -12.929688 16.289062 -13.3125 16.09375 -13.71875 C 15.90625 -14.132812 15.8125 -14.535156 15.8125 -14.921875 C 15.769531 -15.316406 15.835938 -15.660156 16.015625 -15.953125 C 16.191406 -16.242188 16.535156 -16.429688 17.046875 -16.515625 C 17.515625 -16.554688 17.882812 -16.828125 18.15625 -17.328125 C 18.425781 -17.835938 18.628906 -18.414062 18.765625 -19.0625 C 18.910156 -19.71875 18.984375 -20.21875 18.984375 -20.5625 C 18.984375 -21.15625 18.972656 -21.734375 18.953125 -22.296875 C 18.929688 -22.867188 18.765625 -23.445312 18.453125 -24.03125 C 18.140625 -24.539062 17.4375 -24.796875 16.34375 -24.796875 C 16.0625 -24.796875 15.753906 -24.785156 15.421875 -24.765625 C 15.085938 -24.742188 14.726562 -24.71875 14.34375 -24.6875 C 13.75 -24.644531 13.195312 -24.289062 12.6875 -23.625 C 12.175781 -22.957031 11.765625 -22.222656 11.453125 -21.421875 C 11.140625 -20.617188 10.96875 -19.960938 10.9375 -19.453125 C 10.851562 -18.628906 10.789062 -18.082031 10.75 -17.8125 L 10.578125 -16.984375 C 10.535156 -16.785156 10.503906 -16.609375 10.484375 -16.453125 C 10.460938 -16.296875 10.453125 -16.179688 10.453125 -16.109375 C 10.453125 -15.941406 10.460938 -15.734375 10.484375 -15.484375 C 10.503906 -15.234375 10.535156 -14.945312 10.578125 -14.625 C 10.660156 -14.039062 10.726562 -13.484375 10.78125 -12.953125 C 10.84375 -12.429688 10.851562 -11.929688 10.8125 -11.453125 C 10.738281 -10.515625 10.671875 -9.566406 10.609375 -8.609375 C 10.546875 -7.648438 10.554688 -6.71875 10.640625 -5.8125 C 10.679688 -5.1875 10.882812 -4.597656 11.25 -4.046875 C 11.625 -3.503906 12.164062 -3.234375 12.875 -3.234375 C 13.0625 -3.234375 13.273438 -3.222656 13.515625 -3.203125 C 13.753906 -3.179688 14.007812 -3.148438 14.28125 -3.109375 L 14.625 -3.109375 C 14.863281 -3.109375 15.039062 -3.128906 15.15625 -3.171875 C 15.238281 -3.210938 15.472656 -3.234375 15.859375 -3.234375 L 16.625 -3.234375 C 17.175781 -3.234375 17.664062 -3.179688 18.09375 -3.078125 C 18.53125 -2.984375 18.804688 -2.78125 18.921875 -2.46875 L 19.09375 -2 L 19.21875 -1.40625 C 19.21875 -0.894531 18.90625 -0.503906 18.28125 -0.234375 C 17.53125 0.160156 16.195312 0.394531 14.28125 0.46875 L 12.75 0.46875 C 12.550781 0.46875 12.394531 0.445312 12.28125 0.40625 C 11.382812 0.40625 10.484375 0.425781 9.578125 0.46875 C 8.679688 0.507812 7.78125 0.585938 6.875 0.703125 C 6.164062 0.785156 5.613281 0.851562 5.21875 0.90625 C 4.832031 0.96875 4.484375 1 4.171875 1 C 3.617188 1 3.039062 0.921875 2.4375 0.765625 C 1.832031 0.609375 1.429688 0.21875 1.234375 -0.40625 C 1.078125 -0.800781 1.144531 -1.210938 1.4375 -1.640625 C 1.726562 -2.078125 2.070312 -2.3125 2.46875 -2.34375 C 2.863281 -2.34375 3.285156 -2.507812 3.734375 -2.84375 C 4.179688 -3.175781 4.460938 -3.695312 4.578125 -4.40625 C 4.660156 -5.070312 4.722656 -5.539062 4.765625 -5.8125 L 4.765625 -7.234375 C 4.765625 -7.390625 4.769531 -7.582031 4.78125 -7.8125 C 4.800781 -8.050781 4.832031 -8.328125 4.875 -8.640625 C 4.914062 -9.148438 4.90625 -9.648438 4.84375 -10.140625 C 4.789062 -10.628906 4.722656 -11.128906 4.640625 -11.640625 C 4.410156 -12.421875 4.332031 -13.28125 4.40625 -14.21875 C 4.488281 -15.507812 4.507812 -16.722656 4.46875 -17.859375 C 4.425781 -18.992188 4.382812 -19.992188 4.34375 -20.859375 Z M 4.34375 -20.859375 "/></g></g></g></svg>